ffmpeg started on 2025-05-24 at 14:52:18
Report written to "D:\Convert\FFMetrics\reports\ssim_report-6.txt"
Log level: 32
Command line:
ffmpeg -hide_banner -nostdin -i "G:\\\xc0\xed\xe8\xec\xe5\\\xce\xed\xe3\xee\xe8\xed\xe3\xe8\\!_33_\xc7\xe8\xec\xe0_2024\\DreamCast\\\xc2\xf0\xe5\xec\xff \xef\xfb\xf2\xee\xea, \xef\xf0\xe8\xed\xf6\xe5\xf1\xf1\xe0!\\[DC] Hime-sama Goumon no Jikan Desu - 11_Telegram_HEVC.mkv" -i "G:\\\xc0\xed\xe8\xec\xe5\\\xce\xed\xe3\xee\xe8\xed\xe3\xe8\\!_33_\xc7\xe8\xec\xe0_2024\\DreamCast\\\xc2\xf0\xe5\xec\xff \xef\xfb\xf2\xee\xea, \xef\xf0\xe8\xed\xf6\xe5\xf1\xf1\xe0!\\[DC] Hime-sama Goumon no Jikan Desu - 11_Telegram.mp4" -lavfi "[0:v]settb=AVTB,setpts=PTS-STARTPTS,format=pix_fmts=yuv420p10,fps=24000/1001,scale=1920:1080:flags=bicubic[main];[1:v]settb=AVTB,setpts=PTS-STARTPTS,format=pix_fmts=yuv420p,fps=24000/1001,scale=1920:1080:flags=bicubic[ref];[main][ref]ssim=eof_action=endall:stats_file='D\\:/Convert/FFMetrics/logs/ssim_logfile-6.txt'" -f null -
Input #0, matroska,webm, from 'G:\Аниме\Онгоинги\!_33_Зима_2024\DreamCast\Время пыток, принцесса!\[DC] Hime-sama Goumon no Jikan Desu - 11_Telegram_HEVC.mkv':
  Metadata:
    COMPATIBLE_BRANDS: isomiso2avc1mp41
    MAJOR_BRAND     : isom
    MINOR_VERSION   : 512
    ENCODER         : Lavf61.7.100
  Duration: 00:23:46.65, start: -0.021000, bitrate: 1129 kb/s
  Stream #0:0: Video: hevc (Main 10), yuv420p10le(tv, bt709, progressive), 1920x1080 [SAR 1:1 DAR 16:9], 23.98 fps, 23.98 tbr, 1k tbn (default)
      Metadata:
        HANDLER_NAME    : VideoHandler
        VENDOR_ID       : [0][0][0][0]
        ENCODER         : Lavc61.19.100 libx265
        BPS             : 932346
        DURATION        : 00:23:46.549708333
        NUMBER_OF_FRAMES: 34203
        NUMBER_OF_BYTES : 166254678
        _STATISTICS_WRITING_APP: mkvpropedit v66.0.0 ('Josie') 64-bit
        _STATISTICS_WRITING_DATE_UTC: 2025-05-21 16:13:31
        _STATISTICS_TAGS: BPS DURATION NUMBER_OF_FRAMES NUMBER_OF_BYTES
  Stream #0:1: Audio: aac (LC), 48000 Hz, stereo, fltp (default)
      Metadata:
        HANDLER_NAME    : SoundHandler
        VENDOR_ID       : [0][0][0][0]
        ENCODER         : Lavc61.19.100 aac
        BPS             : 193641
        DURATION        : 00:23:46.645000000
        NUMBER_OF_FRAMES: 66875
        NUMBER_OF_BYTES : 34532224
        _STATISTICS_WRITING_APP: mkvpropedit v66.0.0 ('Josie') 64-bit
        _STATISTICS_WRITING_DATE_UTC: 2025-05-21 16:13:31
        _STATISTICS_TAGS: BPS DURATION NUMBER_OF_FRAMES NUMBER_OF_BYTES
Input #1, mov,mp4,m4a,3gp,3g2,mj2, from 'G:\Аниме\Онгоинги\!_33_Зима_2024\DreamCast\Время пыток, принцесса!\[DC] Hime-sama Goumon no Jikan Desu - 11_Telegram.mp4':
  Metadata:
    major_brand     : isom
    minor_version   : 512
    compatible_brands: isomiso2avc1mp41
    encoder         : Lavf60.16.100
  Duration: 00:23:46.62, start: 0.000000, bitrate: 3513 kb/s
  Stream #1:0[0x1](und): Video: h264 (High) (avc1 / 0x31637661), yuv420p(tv, bt709, progressive), 1920x1080 [SAR 1:1 DAR 16:9], 3366 kb/s, 23.98 fps, 23.98 tbr, 24k tbn (default)
      Metadata:
        handler_name    : VideoHandler
        vendor_id       : [0][0][0][0]
        encoder         : Lavc60.31.102 h264_qsv
  Stream #1:1[0x2](und): Audio: aac (HE-AACv2) (mp4a / 0x6134706D), 48000 Hz, stereo, fltp, 144 kb/s (default)
      Metadata:
        handler_name    : SoundHandler
        vendor_id       : [0][0][0][0]
Stream mapping:
  Stream #0:0 (hevc) -> settb:default
  Stream #1:0 (h264) -> settb:default
  ssim:default -> Stream #0:0 (wrapped_avframe)
  Stream #0:1 -> #0:1 (aac (native) -> pcm_s16le (native))
Output #0, null, to 'pipe:':
  Metadata:
    COMPATIBLE_BRANDS: isomiso2avc1mp41
    MAJOR_BRAND     : isom
    MINOR_VERSION   : 512
    encoder         : Lavf61.7.100
  Stream #0:0: Video: wrapped_avframe, yuv420p10le(tv, bt709, progressive), 1920x1080 [SAR 1:1 DAR 16:9], q=2-31, 200 kb/s, 23.98 fps, 23.98 tbn
      Metadata:
        encoder         : Lavc61.19.100 wrapped_avframe
  Stream #0:1: Audio: pcm_s16le, 48000 Hz, stereo, s16, 1536 kb/s (default)
      Metadata:
        HANDLER_NAME    : SoundHandler
        VENDOR_ID       : [0][0][0][0]
        _STATISTICS_TAGS: BPS DURATION NUMBER_OF_FRAMES NUMBER_OF_BYTES
        BPS             : 193641
        DURATION        : 00:23:46.645000000
        NUMBER_OF_FRAMES: 66875
        NUMBER_OF_BYTES : 34532224
        _STATISTICS_WRITING_APP: mkvpropedit v66.0.0 ('Josie') 64-bit
        _STATISTICS_WRITING_DATE_UTC: 2025-05-21 16:13:31
        encoder         : Lavc61.19.100 pcm_s16le
frame=  188 fps=0.0 q=-0.0 size=N/A time=00:00:07.84 bitrate=N/A speed=15.2x    frame=  386 fps=376 q=-0.0 size=N/A time=00:00:16.09 bitrate=N/A speed=15.7x    frame=  603 fps=389 q=-0.0 size=N/A time=00:00:25.15 bitrate=N/A speed=16.2x    frame=  852 fps=414 q=-0.0 size=N/A time=00:00:35.53 bitrate=N/A speed=17.2x    frame= 1098 fps=427 q=-0.0 size=N/A time=00:00:45.79 bitrate=N/A speed=17.8x    frame= 1329 fps=429 q=-0.0 size=N/A time=00:00:55.43 bitrate=N/A speed=17.9x    frame= 1535 fps=426 q=-0.0 size=N/A time=00:01:04.02 bitrate=N/A speed=17.8x    frame= 1738 fps=421 q=-0.0 size=N/A time=00:01:12.48 bitrate=N/A speed=17.5x    frame= 1917 fps=413 q=-0.0 size=N/A time=00:01:19.95 bitrate=N/A speed=17.2x    frame= 2129 fps=413 q=-0.0 size=N/A time=00:01:28.79 bitrate=N/A speed=17.2x    frame= 2380 fps=419 q=-0.0 size=N/A time=00:01:39.26 bitrate=N/A speed=17.5x    frame= 2628 fps=423 q=-0.0 size=N/A time=00:01:49.60 bitrate=N/A speed=17.7x    frame= 2903 fps=432 q=-0.0 size=N/A time=00:02:01.07 bitrate=N/A speed=  18x    frame= 3165 fps=438 q=-0.0 size=N/A time=00:02:12.00 bitrate=N/A speed=18.3x    frame= 3430 fps=442 q=-0.0 size=N/A time=00:02:23.05 bitrate=N/A speed=18.5x    frame= 3687 fps=446 q=-0.0 size=N/A time=00:02:33.77 bitrate=N/A speed=18.6x    frame= 3950 fps=450 q=-0.0 size=N/A time=00:02:44.74 bitrate=N/A speed=18.8x    frame= 4226 fps=454 q=-0.0 size=N/A time=00:02:56.25 bitrate=N/A speed=  19x    frame= 4464 fps=455 q=-0.0 size=N/A time=00:03:06.18 bitrate=N/A speed=  19x    frame= 4672 fps=453 q=-0.0 size=N/A time=00:03:14.86 bitrate=N/A speed=18.9x    frame= 4936 fps=455 q=-0.0 size=N/A time=00:03:25.87 bitrate=N/A speed=  19x    frame= 5190 fps=457 q=-0.0 size=N/A time=00:03:36.46 bitrate=N/A speed=19.1x    frame= 5460 fps=460 q=-0.0 size=N/A time=00:03:47.72 bitrate=N/A speed=19.2x    frame= 5726 fps=462 q=-0.0 size=N/A time=00:03:58.82 bitrate=N/A speed=19.3x    frame= 5983 fps=464 q=-0.0 size=N/A time=00:04:09.54 bitrate=N/A speed=19.3x    frame= 6192 fps=461 q=-0.0 size=N/A time=00:04:18.25 bitrate=N/A speed=19.2x    frame= 6387 fps=458 q=-0.0 size=N/A time=00:04:26.39 bitrate=N/A speed=19.1x    frame= 6676 fps=461 q=-0.0 size=N/A time=00:04:38.44 bitrate=N/A speed=19.2x    frame= 6951 fps=464 q=-0.0 size=N/A time=00:04:49.91 bitrate=N/A speed=19.4x    frame= 7222 fps=466 q=-0.0 size=N/A time=00:05:01.21 bitrate=N/A speed=19.4x    frame= 7489 fps=468 q=-0.0 size=N/A time=00:05:12.35 bitrate=N/A speed=19.5x    frame= 7704 fps=466 q=-0.0 size=N/A time=00:05:21.32 bitrate=N/A speed=19.4x    frame= 7998 fps=469 q=-0.0 size=N/A time=00:05:33.58 bitrate=N/A speed=19.6x    frame= 8276 fps=471 q=-0.0 size=N/A time=00:05:45.17 bitrate=N/A speed=19.7x    frame= 8552 fps=473 q=-0.0 size=N/A time=00:05:56.68 bitrate=N/A speed=19.7x    frame= 8811 fps=474 q=-0.0 size=N/A time=00:06:07.49 bitrate=N/A speed=19.8x    frame= 9064 fps=474 q=-0.0 size=N/A time=00:06:18.04 bitrate=N/A speed=19.8x    frame= 9341 fps=476 q=-0.0 size=N/A time=00:06:29.59 bitrate=N/A speed=19.9x    frame= 9590 fps=476 q=-0.0 size=N/A time=00:06:39.98 bitrate=N/A speed=19.9x    frame= 9882 fps=478 q=-0.0 size=N/A time=00:06:52.16 bitrate=N/A speed=19.9x    frame=10138 fps=479 q=-0.0 size=N/A time=00:07:02.83 bitrate=N/A speed=  20x    frame=10370 fps=478 q=-0.0 size=N/A time=00:07:12.51 bitrate=N/A speed=19.9x    frame=10659 fps=480 q=-0.0 size=N/A time=00:07:24.56 bitrate=N/A speed=  20x    frame=10945 fps=482 q=-0.0 size=N/A time=00:07:36.49 bitrate=N/A speed=20.1x    frame=11195 fps=482 q=-0.0 size=N/A time=00:07:46.92 bitrate=N/A speed=20.1x    frame=11464 fps=483 q=-0.0 size=N/A time=00:07:58.14 bitrate=N/A speed=20.1x    frame=11733 fps=484 q=-0.0 size=N/A time=00:08:09.36 bitrate=N/A speed=20.2x    frame=11989 fps=484 q=-0.0 size=N/A time=00:08:20.04 bitrate=N/A speed=20.2x    frame=12280 fps=485 q=-0.0 size=N/A time=00:08:32.17 bitrate=N/A speed=20.2x    frame=12556 fps=486 q=-0.0 size=N/A time=00:08:43.68 bitrate=N/A speed=20.3x    frame=12804 fps=486 q=-0.0 size=N/A time=00:08:54.03 bitrate=N/A speed=20.3x    frame=13017 fps=485 q=-0.0 size=N/A time=00:09:02.91 bitrate=N/A speed=20.2x    frame=13205 fps=483 q=-0.0 size=N/A time=00:09:10.75 bitrate=N/A speed=20.1x    frame=13447 fps=482 q=-0.0 size=N/A time=00:09:20.85 bitrate=N/A speed=20.1x    frame=13718 fps=483 q=-0.0 size=N/A time=00:09:32.15 bitrate=N/A speed=20.2x    frame=13980 fps=484 q=-0.0 size=N/A time=00:09:43.08 bitrate=N/A speed=20.2x    frame=14257 fps=485 q=-0.0 size=N/A time=00:09:54.63 bitrate=N/A speed=20.2x    frame=14496 fps=484 q=-0.0 size=N/A time=00:10:04.60 bitrate=N/A speed=20.2x    frame=14771 fps=485 q=-0.0 size=N/A time=00:10:16.07 bitrate=N/A speed=20.2x    frame=14982 fps=484 q=-0.0 size=N/A time=00:10:24.87 bitrate=N/A speed=20.2x    frame=15273 fps=485 q=-0.0 size=N/A time=00:10:37.01 bitrate=N/A speed=20.2x    frame=15555 fps=486 q=-0.0 size=N/A time=00:10:48.77 bitrate=N/A speed=20.3x    frame=15819 fps=486 q=-0.0 size=N/A time=00:10:59.78 bitrate=N/A speed=20.3x    frame=16053 fps=486 q=-0.0 size=N/A time=00:11:09.54 bitrate=N/A speed=20.3x    frame=16344 fps=487 q=-0.0 size=N/A time=00:11:21.68 bitrate=N/A speed=20.3x    frame=16615 fps=488 q=-0.0 size=N/A time=00:11:32.98 bitrate=N/A speed=20.3x    frame=16848 fps=487 q=-0.0 size=N/A time=00:11:42.70 bitrate=N/A speed=20.3x    frame=17140 fps=488 q=-0.0 size=N/A time=00:11:54.88 bitrate=N/A speed=20.4x    frame=17412 fps=489 q=-0.0 size=N/A time=00:12:06.22 bitrate=N/A speed=20.4x    frame=17661 fps=489 q=-0.0 size=N/A time=00:12:16.61 bitrate=N/A speed=20.4x    frame=17940 fps=490 q=-0.0 size=N/A time=00:12:28.24 bitrate=N/A speed=20.4x    frame=18232 fps=491 q=-0.0 size=N/A time=00:12:40.42 bitrate=N/A speed=20.5x    frame=18486 fps=491 q=-0.0 size=N/A time=00:12:51.02 bitrate=N/A speed=20.5x    frame=18774 fps=492 q=-0.0 size=N/A time=00:13:03.03 bitrate=N/A speed=20.5x    frame=19054 fps=492 q=-0.0 size=N/A time=00:13:14.71 bitrate=N/A speed=20.5x    frame=19316 fps=493 q=-0.0 size=N/A time=00:13:25.63 bitrate=N/A speed=20.5x    frame=19604 fps=493 q=-0.0 size=N/A time=00:13:37.65 bitrate=N/A speed=20.6x    frame=19883 fps=494 q=-0.0 size=N/A time=00:13:49.28 bitrate=N/A speed=20.6x    frame=20147 fps=494 q=-0.0 size=N/A time=00:14:00.29 bitrate=N/A speed=20.6x    frame=20427 fps=495 q=-0.0 size=N/A time=00:14:11.97 bitrate=N/A speed=20.6x    frame=20708 fps=495 q=-0.0 size=N/A time=00:14:23.69 bitrate=N/A speed=20.7x    frame=20950 fps=495 q=-0.0 size=N/A time=00:14:33.78 bitrate=N/A speed=20.7x    frame=21185 fps=495 q=-0.0 size=N/A time=00:14:43.59 bitrate=N/A speed=20.6x    frame=21458 fps=495 q=-0.0 size=N/A time=00:14:54.97 bitrate=N/A speed=20.7x    frame=21740 fps=496 q=-0.0 size=N/A time=00:15:06.73 bitrate=N/A speed=20.7x    frame=21999 fps=496 q=-0.0 size=N/A time=00:15:17.54 bitrate=N/A speed=20.7x    frame=22281 fps=496 q=-0.0 size=N/A time=00:15:29.30 bitrate=N/A speed=20.7x    frame=22493 fps=495 q=-0.0 size=N/A time=00:15:38.14 bitrate=N/A speed=20.7x    frame=22740 fps=495 q=-0.0 size=N/A time=00:15:48.44 bitrate=N/A speed=20.7x    frame=23024 fps=496 q=-0.0 size=N/A time=00:16:00.29 bitrate=N/A speed=20.7x    frame=23306 fps=496 q=-0.0 size=N/A time=00:16:12.05 bitrate=N/A speed=20.7x    frame=23574 fps=497 q=-0.0 size=N/A time=00:16:23.23 bitrate=N/A speed=20.7x    frame=23840 fps=497 q=-0.0 size=N/A time=00:16:34.32 bitrate=N/A speed=20.7x    frame=24119 fps=497 q=-0.0 size=N/A time=00:16:45.96 bitrate=N/A speed=20.7x    frame=24391 fps=498 q=-0.0 size=N/A time=00:16:57.30 bitrate=N/A speed=20.8x    frame=24643 fps=498 q=-0.0 size=N/A time=00:17:07.81 bitrate=N/A speed=20.8x    frame=24892 fps=497 q=-0.0 size=N/A time=00:17:18.20 bitrate=N/A speed=20.7x    frame=25140 fps=497 q=-0.0 size=N/A time=00:17:28.54 bitrate=N/A speed=20.7x    frame=25347 fps=496 q=-0.0 size=N/A time=00:17:37.18 bitrate=N/A speed=20.7x    frame=25611 fps=496 q=-0.0 size=N/A time=00:17:48.19 bitrate=N/A speed=20.7x    frame=25874 fps=497 q=-0.0 size=N/A time=00:17:59.16 bitrate=N/A speed=20.7x    frame=26112 fps=496 q=-0.0 size=N/A time=00:18:09.08 bitrate=N/A speed=20.7x    frame=26382 fps=496 q=-0.0 size=N/A time=00:18:20.34 bitrate=N/A speed=20.7x    frame=26653 fps=497 q=-0.0 size=N/A time=00:18:31.65 bitrate=N/A speed=20.7x    frame=26914 fps=497 q=-0.0 size=N/A time=00:18:42.53 bitrate=N/A speed=20.7x    frame=27166 fps=497 q=-0.0 size=N/A time=00:18:53.04 bitrate=N/A speed=20.7x    frame=27418 fps=497 q=-0.0 size=N/A time=00:19:03.55 bitrate=N/A speed=20.7x    frame=27701 fps=497 q=-0.0 size=N/A time=00:19:15.36 bitrate=N/A speed=20.7x    frame=27987 fps=498 q=-0.0 size=N/A time=00:19:27.29 bitrate=N/A speed=20.8x    frame=28228 fps=497 q=-0.0 size=N/A time=00:19:37.34 bitrate=N/A speed=20.7x    frame=28496 fps=498 q=-0.0 size=N/A time=00:19:48.52 bitrate=N/A speed=20.8x    frame=28764 fps=498 q=-0.0 size=N/A time=00:19:59.69 bitrate=N/A speed=20.8x    frame=29029 fps=498 q=-0.0 size=N/A time=00:20:10.75 bitrate=N/A speed=20.8x    frame=29259 fps=498 q=-0.0 size=N/A time=00:20:20.34 bitrate=N/A speed=20.8x    frame=29491 fps=497 q=-0.0 size=N/A time=00:20:30.02 bitrate=N/A speed=20.7x    frame=29718 fps=497 q=-0.0 size=N/A time=00:20:39.48 bitrate=N/A speed=20.7x    frame=29951 fps=496 q=-0.0 size=N/A time=00:20:49.20 bitrate=N/A speed=20.7x    frame=30193 fps=496 q=-0.0 size=N/A time=00:20:59.29 bitrate=N/A speed=20.7x    frame=30459 fps=496 q=-0.0 size=N/A time=00:21:10.39 bitrate=N/A speed=20.7x    frame=30723 fps=496 q=-0.0 size=N/A time=00:21:21.40 bitrate=N/A speed=20.7x    frame=31004 fps=497 q=-0.0 size=N/A time=00:21:33.12 bitrate=N/A speed=20.7x    frame=31278 fps=497 q=-0.0 size=N/A time=00:21:44.55 bitrate=N/A speed=20.7x    frame=31506 fps=496 q=-0.0 size=N/A time=00:21:54.06 bitrate=N/A speed=20.7x    frame=31679 fps=495 q=-0.0 size=N/A time=00:22:01.27 bitrate=N/A speed=20.7x    frame=31854 fps=494 q=-0.0 size=N/A time=00:22:08.57 bitrate=N/A speed=20.6x    frame=32038 fps=493 q=-0.0 size=N/A time=00:22:16.25 bitrate=N/A speed=20.6x    frame=32258 fps=492 q=-0.0 size=N/A time=00:22:25.42 bitrate=N/A speed=20.5x    frame=32441 fps=491 q=-0.0 size=N/A time=00:22:33.06 bitrate=N/A speed=20.5x    frame=32670 fps=491 q=-0.0 size=N/A time=00:22:42.61 bitrate=N/A speed=20.5x    frame=32854 fps=490 q=-0.0 size=N/A time=00:22:50.28 bitrate=N/A speed=20.4x    frame=32991 fps=488 q=-0.0 size=N/A time=00:22:55.99 bitrate=N/A speed=20.4x    frame=33139 fps=487 q=-0.0 size=N/A time=00:23:02.17 bitrate=N/A speed=20.3x    frame=33323 fps=486 q=-0.0 size=N/A time=00:23:09.84 bitrate=N/A speed=20.3x    frame=33538 fps=485 q=-0.0 size=N/A time=00:23:18.81 bitrate=N/A speed=20.2x    frame=33824 fps=486 q=-0.0 size=N/A time=00:23:30.74 bitrate=N/A speed=20.3x    frame=34089 fps=486 q=-0.0 size=N/A time=00:23:41.79 bitrate=N/A speed=20.3x    [Parsed_ssim_10 @ 00000288d1c05440] SSIM Y:0.994990 (23.001706) U:0.994102 (22.293166) V:0.994882 (22.908859) All:0.994824 (22.860129)
[out#0/null @ 00000288c47eeec0] video:14697KiB audio:267500KiB subtitle:0KiB other streams:0KiB global headers:0KiB muxing overhead: unknown
frame=34203 fps=486 q=-0.0 Lsize=N/A time=00:23:46.55 bitrate=N/A speed=20.3x    
